<svg xmlns="http://www.w3.org/2000/svg" viewBox="0 0 1920 1080" width="1920" height="1080">
  <rect width="1920" height="1080" fill="#FAF6EE" />
  <g transform="rotate(68 960 540)">
  <polygon points="1067.6,-31.8 1319.1,403.8 816.0,403.8" fill="none" stroke="#2E7D32" stroke-width="1" opacity="0.70" transform="rotate(301 1067.5501644265723 258.58306397278403)" />
  <polygon points="1171.7,213.3 1311.2,454.9 1032.2,454.9" fill="none" stroke="#0A1628" stroke-width="1" opacity="0.45" transform="rotate(8 1171.6660066986744 374.3219209676179)" />
  <polygon points="1140.0,226.4 1223.1,370.4 1056.9,370.4" fill="none" stroke="#F9A825" stroke-width="1" opacity="0.60" transform="rotate(30 1140.02773699046 322.3882532190665)" />
  <polygon points="1134.5,260.2 1180.0,339.0 1088.9,339.0" fill="none" stroke="#1565C0" stroke-width="1" opacity="0.53" transform="rotate(99 1134.4673785472908 312.7450281310885)" />
  <polygon points="1095.6,250.1 1210.7,449.3 980.6,449.3" fill="none" stroke="#1565C0" stroke-width="1" opacity="0.32" transform="rotate(170 1095.6213507808707 382.90312137744786)" />
  <polygon points="528.1,-82.8 836.0,450.6 220.1,450.6" fill="none" stroke="#F9A825" stroke-width="1" opacity="0.61" transform="rotate(112 528.0554695911835 272.8076804440487)" />
  <polygon points="1494.2,76.0 1599.4,258.2 1388.9,258.2" fill="none" stroke="#C62828" stroke-width="1" opacity="0.53" transform="rotate(15 1494.1751893214357 197.49431705323383)" />
  <polygon points="1677.6,35.7 2026.3,639.8 1328.8,639.8" fill="none" stroke="#0A1628" stroke-width="1" opacity="0.54" transform="rotate(81 1677.5634330393661 438.41504454110174)" />
  </g>
  <circle cx="1729.9" cy="638.9" r="19.2" fill="#1565C0" opacity="0.34" />
  <circle cx="251.6" cy="358.2" r="20.5" fill="#1565C0" opacity="0.65" />
  <circle cx="791.3" cy="6.0" r="11.0" fill="#2E7D32" opacity="0.34" />
  <circle cx="1854.4" cy="1040.3" r="24.0" fill="#0A1628" opacity="0.57" />
  <circle cx="744.7" cy="895.6" r="15.9" fill="#F9A825" opacity="0.63" />
  <circle cx="713.7" cy="374.3" r="16.2" fill="#6A1B9A" opacity="0.54" />
  <circle cx="279.0" cy="187.6" r="7.0" fill="#6A1B9A" opacity="0.55" />
  <circle cx="1862.2" cy="1058.3" r="10.5" fill="#2E7D32" opacity="0.44" />
  <circle cx="356.8" cy="519.4" r="12.5" fill="#6A1B9A" opacity="0.51" />
  <circle cx="1227.9" cy="398.4" r="13.5" fill="#2E7D32" opacity="0.37" />

</svg>