<svg xmlns="http://www.w3.org/2000/svg" viewBox="0 0 1920 1080" width="1920" height="1080">
  <rect width="1920" height="1080" fill="#FAF6EE" />
  <g transform="translate(-272 -133) rotate(11 960 540) scale(1.23)">
  <line x1="193.4" y1="108" x2="192.0" y2="972" stroke="#C62828" stroke-width="2.1" opacity="0.43" />
  <line x1="192" y1="449.9" x2="1728" y2="450.4" stroke="#2E7D32" stroke-width="3.0" opacity="0.48" />
  <line x1="192" y1="629.5" x2="1728" y2="629.6" stroke="#2E7D32" stroke-width="3.7" opacity="0.32" />
  <line x1="192" y1="802.4" x2="1728" y2="801.8" stroke="#0A1628" stroke-width="3.7" opacity="0.39" />
  <line x1="1424.0" y1="108" x2="1423.1" y2="972" stroke="#0A1628" stroke-width="3.7" opacity="0.39" />
  <line x1="192" y1="976.0" x2="1728" y2="975.0" stroke="#F9A825" stroke-width="2.3" opacity="0.35" />
  </g>
  <g transform="translate(-238 8) rotate(2 960 540) scale(0.73)">
  <rect x="364" y="212" width="120" height="40" fill="#C62828" opacity="0.29" transform="rotate(16 960 540)" />
  <rect x="1743" y="933" width="94" height="124" fill="#C62828" opacity="0.30" transform="rotate(6 960 540)" />
  <rect x="1877" y="283" width="80" height="36" fill="#F9A825" opacity="0.40" transform="rotate(0 960 540)" />
  <rect x="1084" y="1047" width="190" height="177" fill="#F9A825" opacity="0.42" transform="rotate(23 960 540)" />
  <rect x="89" y="222" width="223" height="125" fill="#6A1B9A" opacity="0.36" transform="rotate(24 960 540)" />
  <rect x="1898" y="719" width="166" height="75" fill="#2E7D32" opacity="0.38" transform="rotate(30 960 540)" />
  </g>

</svg>