<svg xmlns="http://www.w3.org/2000/svg" viewBox="0 0 1920 1080" width="1920" height="1080">
  <rect width="1920" height="1080" fill="#FAF6EE" />
  <g transform="rotate(41 1126 210)">
  <circle cx="1125.5776507643932" cy="210.02467355272378" r="256.3" fill="#6A1B9A" fill-opacity="0.22" stroke="#6A1B9A" stroke-width="4.6" opacity="0.73" />
  <circle cx="1125.5776507643932" cy="210.02467355272378" r="205.1" fill="none" fill-opacity="0.00" stroke="#2E7D32" stroke-width="4.9" opacity="0.41" />
  <circle cx="1125.5776507643932" cy="210.02467355272378" r="153.8" fill="none" fill-opacity="0.00" stroke="#0A1628" stroke-width="4.1" opacity="0.62" />
  <circle cx="1125.5776507643932" cy="210.02467355272378" r="102.5" fill="none" fill-opacity="0.00" stroke="#F9A825" stroke-width="2.3" opacity="0.68" />
  <circle cx="1125.5776507643932" cy="210.02467355272378" r="51.3" fill="#1565C0" fill-opacity="0.19" stroke="#1565C0" stroke-width="6.2" opacity="0.72" />
  <line x1="792" y1="210" x2="1459" y2="210" stroke="#1565C0" stroke-width="1.2" opacity="0.39" />
  <line x1="1126" y1="-123" x2="1126" y2="543" stroke="#1565C0" stroke-width="2.5" opacity="0.39" />
  </g>
  <circle cx="1547.0135203625573" cy="322.10575019058444" r="78.7" fill="none" fill-opacity="0.00" stroke="#6A1B9A" stroke-width="3.1" opacity="0.51" />
  <circle cx="1547.0135203625573" cy="322.10575019058444" r="62.9" fill="#2E7D32" fill-opacity="0.30" stroke="#2E7D32" stroke-width="2.2" opacity="0.73" />
  <circle cx="1547.0135203625573" cy="322.10575019058444" r="47.2" fill="#0A1628" fill-opacity="0.30" stroke="#0A1628" stroke-width="3.1" opacity="0.80" />
  <circle cx="1547.0135203625573" cy="322.10575019058444" r="31.5" fill="none" fill-opacity="0.00" stroke="#F9A825" stroke-width="2.1" opacity="0.70" />
  <circle cx="1547.0135203625573" cy="322.10575019058444" r="15.7" fill="#1565C0" fill-opacity="0.25" stroke="#1565C0" stroke-width="3.2" opacity="0.62" />
  <circle cx="1570.1" cy="608.5" r="19.6" fill="#6A1B9A" opacity="0.52" />
  <circle cx="19.4" cy="700.2" r="6.0" fill="#6A1B9A" opacity="0.60" />
  <circle cx="1553.8" cy="918.1" r="5.0" fill="#C62828" opacity="0.52" />
  <circle cx="941.5" cy="583.7" r="18.4" fill="#2E7D32" opacity="0.33" />
  <circle cx="562.8" cy="446.5" r="5.8" fill="#1565C0" opacity="0.68" />
  <circle cx="1121.9" cy="359.1" r="19.5" fill="#1565C0" opacity="0.51" />
  <circle cx="278.5" cy="473.6" r="12.1" fill="#C62828" opacity="0.38" />
  <circle cx="113.0" cy="1053.4" r="4.7" fill="#C62828" opacity="0.36" />
  <circle cx="832.5" cy="172.2" r="9.3" fill="#C62828" opacity="0.39" />
  <circle cx="1051.1" cy="57.5" r="6.6" fill="#C62828" opacity="0.28" />
  <circle cx="229.7" cy="716.5" r="21.0" fill="#0A1628" opacity="0.37" />
  <circle cx="1355.5" cy="517.8" r="18.6" fill="#0A1628" opacity="0.55" />
  <circle cx="1487.4" cy="961.6" r="12.5" fill="#C62828" opacity="0.28" />
  <circle cx="616.6" cy="1003.4" r="4.9" fill="#6A1B9A" opacity="0.69" />
  <circle cx="1811.1" cy="178.9" r="10.8" fill="#F9A825" opacity="0.53" />

</svg>