<svg xmlns="http://www.w3.org/2000/svg" viewBox="0 0 1920 1080" width="1920" height="1080">
  <rect width="1920" height="1080" fill="#FAF6EE" />
  <g transform="rotate(134 684 696)">
  <circle cx="683.682820673027" cy="696.0884757740629" r="367.8" fill="none" fill-opacity="0.00" stroke="#2E7D32" stroke-width="5.0" opacity="0.63" />
  <circle cx="683.682820673027" cy="696.0884757740629" r="275.9" fill="#0A1628" fill-opacity="0.18" stroke="#0A1628" stroke-width="4.4" opacity="0.79" />
  <circle cx="683.682820673027" cy="696.0884757740629" r="183.9" fill="#F9A825" fill-opacity="0.13" stroke="#F9A825" stroke-width="3.9" opacity="0.76" />
  <circle cx="683.682820673027" cy="696.0884757740629" r="92.0" fill="none" fill-opacity="0.00" stroke="#1565C0" stroke-width="3.0" opacity="0.57" />
  <circle cx="696.9196567009499" cy="567.1965575161217" r="132.0" fill="none" fill-opacity="0.00" stroke="#F9A825" stroke-width="2.6" opacity="0.55" />
  <circle cx="696.9196567009499" cy="567.1965575161217" r="66.0" fill="none" fill-opacity="0.00" stroke="#1565C0" stroke-width="3.8" opacity="0.62" />
  <circle cx="568.5489747046448" cy="821.7504757795783" r="148.1" fill="none" fill-opacity="0.00" stroke="#2E7D32" stroke-width="4.7" opacity="0.50" />
  <circle cx="568.5489747046448" cy="821.7504757795783" r="111.1" fill="none" fill-opacity="0.00" stroke="#0A1628" stroke-width="2.1" opacity="0.66" />
  <circle cx="568.5489747046448" cy="821.7504757795783" r="74.1" fill="none" fill-opacity="0.00" stroke="#F9A825" stroke-width="5.1" opacity="0.49" />
  <circle cx="568.5489747046448" cy="821.7504757795783" r="37.0" fill="none" fill-opacity="0.00" stroke="#1565C0" stroke-width="6.0" opacity="0.44" />
  <circle cx="562.5890303574967" cy="737.5470415851287" r="179.4" fill="#2E7D32" fill-opacity="0.20" stroke="#2E7D32" stroke-width="6.6" opacity="0.73" />
  <circle cx="562.5890303574967" cy="737.5470415851287" r="134.5" fill="none" fill-opacity="0.00" stroke="#0A1628" stroke-width="3.6" opacity="0.67" />
  <circle cx="562.5890303574967" cy="737.5470415851287" r="89.7" fill="#F9A825" fill-opacity="0.24" stroke="#F9A825" stroke-width="2.2" opacity="0.78" />
  <circle cx="562.5890303574967" cy="737.5470415851287" r="44.8" fill="none" fill-opacity="0.00" stroke="#1565C0" stroke-width="3.7" opacity="0.68" />
  </g>
  <circle cx="950.7174492605769" cy="346.0007908255795" r="212.7" fill="#F9A825" fill-opacity="0.24" stroke="#F9A825" stroke-width="6.9" opacity="0.75" />
  <circle cx="950.7174492605769" cy="346.0007908255795" r="106.3" fill="#1565C0" fill-opacity="0.20" stroke="#1565C0" stroke-width="3.2" opacity="0.80" />
  <circle cx="1760.2" cy="776.5" r="5.6" fill="#0A1628" opacity="0.54" />
  <circle cx="1294.9" cy="866.3" r="5.3" fill="#2E7D32" opacity="0.54" />
  <circle cx="127.7" cy="150.7" r="9.8" fill="#F9A825" opacity="0.35" />
  <circle cx="1281.7" cy="606.3" r="19.2" fill="#C62828" opacity="0.68" />
  <circle cx="14.3" cy="451.3" r="5.3" fill="#C62828" opacity="0.39" />
  <circle cx="1239.9" cy="969.0" r="19.8" fill="#6A1B9A" opacity="0.39" />
  <circle cx="681.3" cy="839.7" r="16.8" fill="#F9A825" opacity="0.40" />
  <circle cx="643.0" cy="366.6" r="19.7" fill="#0A1628" opacity="0.52" />
  <circle cx="1721.2" cy="654.5" r="7.7" fill="#6A1B9A" opacity="0.41" />
  <circle cx="113.3" cy="723.5" r="10.9" fill="#0A1628" opacity="0.38" />
  <circle cx="1693.9" cy="42.5" r="14.7" fill="#2E7D32" opacity="0.64" />
  <circle cx="1391.7" cy="987.6" r="5.2" fill="#F9A825" opacity="0.62" />
  <circle cx="523.4" cy="677.9" r="4.9" fill="#F9A825" opacity="0.28" />
  <circle cx="253.3" cy="1052.0" r="22.4" fill="#2E7D32" opacity="0.55" />
  <circle cx="1638.7" cy="348.6" r="9.8" fill="#0A1628" opacity="0.43" />
  <circle cx="553.1" cy="439.9" r="21.8" fill="#1565C0" opacity="0.29" />
  <circle cx="1151.5" cy="737.5" r="14.3" fill="#2E7D32" opacity="0.68" />
  <circle cx="876.0" cy="1077.5" r="8.3" fill="#2E7D32" opacity="0.69" />
  <circle cx="226.3" cy="588.1" r="19.2" fill="#2E7D32" opacity="0.61" />

</svg>