<svg xmlns="http://www.w3.org/2000/svg" viewBox="0 0 1920 1080" width="1920" height="1080">
  <rect width="1920" height="1080" fill="#FAF6EE" />
  <g transform="rotate(140 790 702)">
  <circle cx="790.3467129669959" cy="702.4330714164379" r="405.0" fill="#C62828" fill-opacity="0.14" stroke="#C62828" stroke-width="6.4" opacity="0.61" />
  <circle cx="790.3467129669959" cy="702.4330714164379" r="337.5" fill="#6A1B9A" fill-opacity="0.28" stroke="#6A1B9A" stroke-width="6.8" opacity="0.67" />
  <circle cx="790.3467129669959" cy="702.4330714164379" r="270.0" fill="none" fill-opacity="0.00" stroke="#2E7D32" stroke-width="3.1" opacity="0.49" />
  <circle cx="790.3467129669959" cy="702.4330714164379" r="202.5" fill="#0A1628" fill-opacity="0.27" stroke="#0A1628" stroke-width="3.0" opacity="0.47" />
  <circle cx="790.3467129669959" cy="702.4330714164379" r="135.0" fill="none" fill-opacity="0.00" stroke="#F9A825" stroke-width="6.3" opacity="0.64" />
  <circle cx="790.3467129669959" cy="702.4330714164379" r="67.5" fill="none" fill-opacity="0.00" stroke="#1565C0" stroke-width="6.0" opacity="0.69" />
  <circle cx="724.3340270722222" cy="893.0784371966774" r="159.4" fill="#F9A825" fill-opacity="0.29" stroke="#F9A825" stroke-width="4.3" opacity="0.63" />
  <circle cx="724.3340270722222" cy="893.0784371966774" r="79.7" fill="none" fill-opacity="0.00" stroke="#1565C0" stroke-width="5.5" opacity="0.68" />
  <circle cx="888.9808604854703" cy="659.9912033644956" r="172.6" fill="none" fill-opacity="0.00" stroke="#F9A825" stroke-width="2.5" opacity="0.71" />
  <circle cx="888.9808604854703" cy="659.9912033644956" r="86.3" fill="none" fill-opacity="0.00" stroke="#1565C0" stroke-width="3.9" opacity="0.69" />
  <circle cx="926.1632644890926" cy="603.9400294472952" r="89.1" fill="#F9A825" fill-opacity="0.18" stroke="#F9A825" stroke-width="3.1" opacity="0.53" />
  <circle cx="926.1632644890926" cy="603.9400294472952" r="44.5" fill="none" fill-opacity="0.00" stroke="#1565C0" stroke-width="2.2" opacity="0.51" />
  </g>
  <circle cx="359.17406477946184" cy="688.0996929873013" r="236.4" fill="#0A1628" fill-opacity="0.16" stroke="#0A1628" stroke-width="2.5" opacity="0.77" />
  <circle cx="359.17406477946184" cy="688.0996929873013" r="157.6" fill="#F9A825" fill-opacity="0.22" stroke="#F9A825" stroke-width="6.9" opacity="0.58" />
  <circle cx="359.17406477946184" cy="688.0996929873013" r="78.8" fill="none" fill-opacity="0.00" stroke="#1565C0" stroke-width="6.5" opacity="0.62" />
  <circle cx="1327.2" cy="612.1" r="6.3" fill="#1565C0" opacity="0.33" />
  <circle cx="624.1" cy="593.1" r="20.0" fill="#C62828" opacity="0.28" />
  <circle cx="1870.5" cy="815.3" r="12.8" fill="#2E7D32" opacity="0.45" />
  <circle cx="1522.3" cy="433.2" r="9.3" fill="#6A1B9A" opacity="0.40" />
  <circle cx="1138.6" cy="1008.4" r="15.2" fill="#1565C0" opacity="0.44" />
  <circle cx="642.6" cy="1042.8" r="21.2" fill="#F9A825" opacity="0.30" />
  <circle cx="1187.6" cy="20.0" r="19.3" fill="#0A1628" opacity="0.45" />
  <circle cx="1688.0" cy="723.0" r="5.1" fill="#C62828" opacity="0.41" />
  <circle cx="250.6" cy="96.8" r="12.9" fill="#6A1B9A" opacity="0.28" />
  <circle cx="705.2" cy="506.7" r="5.7" fill="#F9A825" opacity="0.35" />
  <circle cx="1241.4" cy="133.4" r="6.6" fill="#0A1628" opacity="0.51" />
  <circle cx="906.5" cy="703.7" r="15.9" fill="#6A1B9A" opacity="0.39" />
  <circle cx="896.6" cy="471.3" r="8.0" fill="#6A1B9A" opacity="0.66" />
  <circle cx="1748.5" cy="172.9" r="23.1" fill="#2E7D32" opacity="0.47" />
  <circle cx="1545.9" cy="90.2" r="18.9" fill="#0A1628" opacity="0.33" />
  <circle cx="928.4" cy="445.1" r="9.8" fill="#1565C0" opacity="0.30" />
  <circle cx="1306.4" cy="371.9" r="20.3" fill="#C62828" opacity="0.34" />
  <circle cx="1687.9" cy="827.2" r="7.9" fill="#F9A825" opacity="0.34" />
  <circle cx="372.2" cy="335.6" r="15.1" fill="#0A1628" opacity="0.49" />
  <circle cx="597.6" cy="772.6" r="15.5" fill="#6A1B9A" opacity="0.26" />

</svg>