<svg xmlns="http://www.w3.org/2000/svg" viewBox="0 0 1920 1080" width="1920" height="1080">
  <rect width="1920" height="1080" fill="#FAF6EE" />
  <g transform="rotate(154 960 540)">
  <polygon points="1635.1,-99.4 1834.5,245.9 1435.7,245.9" fill="none" stroke="#F9A825" stroke-width="1" opacity="0.36" transform="rotate(252 1635.1131130240656 130.77984767937565)" />
  <polygon points="1726.8,-84.5 1834.7,102.5 1618.8,102.5" fill="none" stroke="#C62828" stroke-width="1" opacity="0.36" transform="rotate(8 1726.7689819733612 40.13989009906123)" />
  <polygon points="1700.5,16.7 1761.7,122.7 1639.2,122.7" fill="none" stroke="#C62828" stroke-width="1" opacity="0.64" transform="rotate(358 1700.4571441375022 87.3386240371219)" />
  <polygon points="1691.8,57.0 1724.3,113.3 1659.3,113.3" fill="none" stroke="#C62828" stroke-width="1" opacity="0.67" transform="rotate(137 1691.81365308601 94.53719303915425)" />
  <polygon points="1689.9,84.4 1707.2,114.3 1672.6,114.3" fill="none" stroke="#0A1628" stroke-width="1" opacity="0.39" transform="rotate(24 1689.8806602302886 104.33272568048243)" />
  <polygon points="1685.1,97.6 1692.2,109.9 1678.0,109.9" fill="none" stroke="#2E7D32" stroke-width="1" opacity="0.60" transform="rotate(69 1685.0997379069422 105.77037872681167)" />
  <polygon points="1681.1,79.8 1692.1,98.9 1670.1,98.9" fill="none" stroke="#0A1628" stroke-width="1" opacity="0.54" transform="rotate(201 1681.1127159098344 92.55841656112771)" />
  <polygon points="1683.3,88.5 1689.6,99.3 1677.1,99.3" fill="none" stroke="#0A1628" stroke-width="1" opacity="0.56" transform="rotate(82 1683.333068000506 95.73715198715844)" />
  <polygon points="1666.1,58.1 1692.6,103.9 1639.7,103.9" fill="none" stroke="#C62828" stroke-width="1" opacity="0.51" transform="rotate(342 1666.1348404706216 88.65088390731442)" />
  <polygon points="1656.9,85.6 1668.2,105.1 1645.7,105.1" fill="none" stroke="#F9A825" stroke-width="1" opacity="0.63" transform="rotate(354 1656.9452728221822 98.59211177574996)" />
  <polygon points="1654.0,86.0 1660.5,97.3 1647.5,97.3" fill="none" stroke="#F9A825" stroke-width="1" opacity="0.36" transform="rotate(262 1654.0240548528832 93.53662567919322)" />
  <polygon points="1745.2,148.9 1815.3,270.2 1675.2,270.2" fill="none" stroke="#F9A825" stroke-width="1" opacity="0.51" transform="rotate(86 1745.2467087385937 229.76907441353052)" />
  </g>
  <line x1="1653" y1="838" x2="1971" y2="1294" stroke="#1565C0" stroke-width="4.7" opacity="0.47" />
  <line x1="1298" y1="3" x2="1105" y2="517" stroke="#1565C0" stroke-width="1.8" opacity="0.56" />
  <line x1="1185" y1="370" x2="582" y2="751" stroke="#1565C0" stroke-width="1.7" opacity="0.44" />
  <line x1="1311" y1="948" x2="824" y2="1248" stroke="#0A1628" stroke-width="4.9" opacity="0.46" />
  <line x1="316" y1="411" x2="-337" y2="755" stroke="#2E7D32" stroke-width="3.4" opacity="0.48" />
  <line x1="78" y1="1058" x2="-94" y2="1489" stroke="#6A1B9A" stroke-width="4.0" opacity="0.37" />
  <line x1="669" y1="747" x2="668" y2="1175" stroke="#1565C0" stroke-width="1.2" opacity="0.41" />
  <line x1="764" y1="351" x2="327" y2="501" stroke="#2E7D32" stroke-width="3.3" opacity="0.40" />
  <circle cx="525.0" cy="929.1" r="6.5" fill="#1565C0" opacity="0.37" />
  <circle cx="386.3" cy="698.3" r="9.2" fill="#6A1B9A" opacity="0.50" />
  <circle cx="651.9" cy="549.0" r="18.9" fill="#1565C0" opacity="0.45" />
  <circle cx="170.1" cy="1047.2" r="13.9" fill="#F9A825" opacity="0.55" />

</svg>