<svg xmlns="http://www.w3.org/2000/svg" viewBox="0 0 1920 1080" width="1920" height="1080">
  <rect width="1920" height="1080" fill="#FAF6EE" />
  <g transform="translate(235 -41) rotate(-11 960 540) scale(1.17)">
  <circle cx="1228.803457367421" cy="797.9047907455603" r="343.9" fill="#F9A825" fill-opacity="0.19" stroke="#F9A825" stroke-width="2.7" opacity="0.55" />
  <circle cx="1228.803457367421" cy="797.9047907455603" r="300.9" fill="none" fill-opacity="0.00" stroke="#1565C0" stroke-width="4.3" opacity="0.62" />
  <circle cx="1228.803457367421" cy="797.9047907455603" r="257.9" fill="none" fill-opacity="0.00" stroke="#C62828" stroke-width="3.2" opacity="0.67" />
  <circle cx="1228.803457367421" cy="797.9047907455603" r="214.9" fill="none" fill-opacity="0.00" stroke="#6A1B9A" stroke-width="2.7" opacity="0.55" />
  <circle cx="1228.803457367421" cy="797.9047907455603" r="172.0" fill="#2E7D32" fill-opacity="0.22" stroke="#2E7D32" stroke-width="2.9" opacity="0.52" />
  <circle cx="1228.803457367421" cy="797.9047907455603" r="129.0" fill="#0A1628" fill-opacity="0.24" stroke="#0A1628" stroke-width="2.4" opacity="0.50" />
  <circle cx="1228.803457367421" cy="797.9047907455603" r="86.0" fill="#F9A825" fill-opacity="0.21" stroke="#F9A825" stroke-width="3.0" opacity="0.46" />
  <circle cx="1228.803457367421" cy="797.9047907455603" r="43.0" fill="none" fill-opacity="0.00" stroke="#1565C0" stroke-width="2.3" opacity="0.47" />
  </g>
  <g transform="translate(-182 -59) rotate(1 960 540) scale(1.05)">
  <line x1="192" y1="112.8" x2="1728" y2="113.5" stroke="#2E7D32" stroke-width="1.3" opacity="0.21" />
  <line x1="365.3" y1="108" x2="363.5" y2="972" stroke="#0A1628" stroke-width="1.6" opacity="0.45" />
  <line x1="192" y1="305.7" x2="1728" y2="304.2" stroke="#F9A825" stroke-width="3.6" opacity="0.21" />
  <line x1="192" y1="390.8" x2="1728" y2="389.7" stroke="#1565C0" stroke-width="3.3" opacity="0.42" />
  <line x1="698.8" y1="108" x2="700.5" y2="972" stroke="#1565C0" stroke-width="3.3" opacity="0.42" />
  <line x1="192" y1="492.5" x2="1728" y2="493.0" stroke="#F9A825" stroke-width="3.9" opacity="0.53" />
  <line x1="875.1" y1="108" x2="874.8" y2="972" stroke="#F9A825" stroke-width="3.9" opacity="0.53" />
  <line x1="1047.3" y1="108" x2="1047.0" y2="972" stroke="#C62828" stroke-width="3.2" opacity="0.39" />
  <line x1="192" y1="688.0" x2="1728" y2="687.5" stroke="#2E7D32" stroke-width="3.8" opacity="0.30" />
  <line x1="192" y1="779.4" x2="1728" y2="778.9" stroke="#6A1B9A" stroke-width="2.4" opacity="0.24" />
  <line x1="1386.1" y1="108" x2="1384.3" y2="972" stroke="#6A1B9A" stroke-width="2.4" opacity="0.24" />
  <line x1="1552.9" y1="108" x2="1552.4" y2="972" stroke="#1565C0" stroke-width="3.5" opacity="0.39" />
  <line x1="192" y1="973.8" x2="1728" y2="975.2" stroke="#1565C0" stroke-width="2.5" opacity="0.33" />
  <line x1="1729.8" y1="108" x2="1730.0" y2="972" stroke="#1565C0" stroke-width="2.5" opacity="0.33" />
  </g>
  <g transform="translate(190 146) rotate(-19 960 540) scale(0.63)">
  <polygon points="539.7,536.6 662.3,749.1 417.0,749.1" fill="none" stroke="#1565C0" stroke-width="1" opacity="0.41" transform="rotate(122 539.6768290762968 678.2671096749294)" />
  <polygon points="586.2,620.2 635.5,705.6 536.9,705.6" fill="none" stroke="#6A1B9A" stroke-width="1" opacity="0.58" transform="rotate(135 586.2113971029272 677.155387157816)" />
  <polygon points="601.6,606.3 661.7,710.5 541.4,710.5" fill="none" stroke="#1565C0" stroke-width="1" opacity="0.46" transform="rotate(302 601.576814581628 675.7739360931888)" />
  </g>

</svg>